<?xml version="1.0" encoding="utf-8"?>
<!-- Generator: Adobe Illustrator 16.0.0, SVG Export Plug-In . SVG Version: 6.00 Build 0)  -->
<!DOCTYPE svg PUBLIC "-//W3C//DTD SVG 1.1//EN" "http://www.w3.org/Graphics/SVG/1.1/DTD/svg11.dtd">
<svg version="1.1" id="Layer_1" xmlns="http://www.w3.org/2000/svg" xmlns:xlink="http://www.w3.org/1999/xlink" x="0px" y="0px"
	 width="28.35px" height="28.35px" viewBox="0 0 28.35 28.35" enable-background="new 0 0 28.35 28.35" xml:space="preserve">
<path fill-rule="evenodd" clip-rule="evenodd" d="M28.055,28.104c-0.161,0.162-0.373,0.242-0.585,0.242
	c-0.211,0-0.422-0.08-0.584-0.242l-7.815-7.816c-2.094,1.808-4.731,2.802-7.525,2.802C5.179,23.09,0,17.911,0,11.545
	C0,5.179,5.179,0,11.545,0C17.911,0,23.09,5.179,23.09,11.545c0,2.817-1.013,5.474-2.85,7.577l7.814,7.814
	C28.377,27.26,28.377,27.782,28.055,28.104z M21.466,11.545c0-5.47-4.45-9.92-9.92-9.92s-9.92,4.45-9.92,9.92s4.45,9.92,9.92,9.92
	c2.65,0,5.141-1.032,7.014-2.906C20.434,16.686,21.466,14.195,21.466,11.545z"/>
</svg>
