<svg xmlns="http://www.w3.org/2000/svg" width="32" height="32" viewBox="0 0 32 32">
    <g fill="none" fill-rule="evenodd">
        <g>
            <g>
                <g>
                    <g fill-rule="nonzero">
                        <path fill="#FF5F00" d="M9.721 1.792H16.9V14.717H9.721z" transform="translate(-568 -50) translate(568 50) translate(1 6) translate(1.667 1.667)"/>
                        <path fill="#EB001B" d="M10.177 8.256c-.003-2.523 1.153-4.906 3.134-6.464C9.946-.856 5.115-.47 2.213 2.678c-2.903 3.15-2.903 8.004 0 11.153 2.902 3.149 7.733 3.534 11.098.886-1.98-1.557-3.136-3.94-3.134-6.461z" transform="translate(-568 -50) translate(568 50) translate(1 6) translate(1.667 1.667)"/>
                        <path fill="#F79E1B" d="M26.587 8.256c0 3.147-1.794 6.017-4.62 7.392-2.825 1.376-6.187 1.014-8.656-.931 1.979-1.558 3.135-3.94 3.135-6.462S15.29 3.35 13.31 1.792c2.47-1.945 5.83-2.306 8.656-.931 2.826 1.375 4.62 4.246 4.62 7.392v.003z" transform="translate(-568 -50) translate(568 50) translate(1 6) translate(1.667 1.667)"/>
                    </g>
                </g>
            </g>
        </g>
    </g>
</svg>
